<?xml version="1.0" encoding="UTF-8"?>
<svg id="Layer_2" data-name="Layer 2" xmlns="http://www.w3.org/2000/svg" viewBox="0 0 268.24 142.89">
  <defs>
    <style>
      .cls-1 {
        fill: #fff;
      }

      .cls-2 {
        opacity: .61;
      }
    </style>
  </defs>
  <g id="Layer_1-2" data-name="Layer 1">
    <g>
      <g>
        <path class="cls-1" d="m254.55,71.46l-24.06,24.06L154.21,19.25l-8.02,8.02,80.29,80.29c1.11,1.1,2.56,1.66,4.01,1.66s2.9-.56,4.01-1.66l28.07-28.07-8.02-8.02Z"/>
        <g>
          <path class="cls-1" d="m226.48,43.39l17.44,17.44-17.46-17.46s.01.02.02.03Z"/>
          <path class="cls-1" d="m266.58,67.45l-13.24-13.24,13.24,13.24c1.06,1.06,1.66,2.51,1.66,4.01s-.6,2.95-1.66,4.01l-32.08,32.08c-1.11,1.11-2.56,1.66-4.01,1.66s-2.9-.55-4.01-1.66l-4.01-4.01-16.41,16.41c-14.12,14.12-36.31,15.36-51.85,3.72l44.2-44.19-8.02-8.02-48.49,48.49c-1.06,1.06-1.66,2.51-1.66,4.01s.6,2.95,1.66,4.01c9.95,9.95,23.02,14.92,36.09,14.92s26.14-4.97,36.09-14.92l52.5-52.5c1.06-1.06,1.66-2.51,1.66-4.01s-.6-2.95-1.66-4.01Z"/>
          <path class="cls-1" d="m234.5,107.55l-9.2,9.2-11.22,11.21c-9.95,9.95-23.02,14.92-36.09,14.92-9.95,0-19.91-2.88-28.49-8.66-1.15-.77-2.27-1.6-3.37-2.47-1.46-1.17-2.88-2.43-4.24-3.78-1.06-1.06-1.66-2.51-1.66-4.01s.6-2.95,1.66-4.01l43.3-43.29,5.19-5.19,3.78,3.79,4.23,4.23-5.19,5.19-39,39c1.13.85,2.3,1.63,3.51,2.34,15.23,9.04,35.25,7.02,48.34-6.07l11.22-11.21,5.19-5.19,4.01,4.01c1.11,1.1,2.56,1.66,4.01,1.66s2.9-.56,4.01-1.66Z"/>
          <path class="cls-1" d="m237.51,40.38l-5.19,5.19-39,39-8.08,8.08c-1.46-1.17-2.88-2.43-4.24-3.78-1.06-1.06-1.66-2.51-1.66-4.01s.6-2.95,1.66-4.01l43.3-43.29,5.19-5.19,3.78,3.79,4.23,4.23Z"/>
        </g>
        <path class="cls-1" d="m268.24,71.46c0,1.51-.6,2.95-1.66,4.01l-4.01,4.01-56.51-56.51c-7.5-7.5-17.47-11.63-28.07-11.63-8.69,0-16.95,2.77-23.78,7.9l-8.02,8.02-4.29-4.29c-1.06-1.07-1.66-2.51-1.66-4.01s.6-2.95,1.66-4.01c9.64-9.64,22.46-14.95,36.1-14.95s26.45,5.31,36.09,14.95l52.5,52.5c1.06,1.07,1.66,2.51,1.66,4.01Z"/>
        <g class="cls-2">
          <g>
            <polygon class="cls-1" points="194.18 75.25 198.41 79.48 193.22 84.67 185.2 76.66 190.39 71.46 194.18 75.25"/>
            <path class="cls-1" d="m234.5,107.55l-9.2,9.2-8.02-8.02,5.19-5.19,4.01,4.01c1.11,1.1,2.56,1.66,4.01,1.66s2.9-.56,4.01-1.66Z"/>
          </g>
          <path class="cls-1" d="m157.72,126.02l-8.21,8.21c-1.15-.77-2.27-1.6-3.37-2.47l8.08-8.08c1.13.85,2.3,1.63,3.51,2.34Z"/>
        </g>
      </g>
      <g>
        <path class="cls-1" d="m5.67,79.48l28.07,28.07c1.11,1.1,2.56,1.66,4.01,1.66s2.9-.56,4.01-1.66L122.05,27.27l-8.02-8.02L37.76,95.52l-24.06-24.06-8.02,8.02Z"/>
        <g>
          <path class="cls-1" d="m41.77,43.39l-17.44,17.44,17.46-17.46s-.02.02-.02.03Z"/>
          <path class="cls-1" d="m1.66,67.45l13.24-13.24-13.24,13.24C.6,68.51,0,69.96,0,71.46s.6,2.95,1.66,4.01l32.08,32.08c1.11,1.11,2.56,1.66,4.01,1.66s2.9-.55,4.01-1.66l4.01-4.01,16.41,16.41c14.12,14.12,36.31,15.36,51.85,3.72l-44.2-44.19,8.02-8.02,48.49,48.49c1.06,1.06,1.66,2.51,1.66,4.01s-.6,2.95-1.66,4.01c-9.95,9.95-23.02,14.92-36.09,14.92s-26.14-4.97-36.09-14.92L1.66,75.47c-1.06-1.06-1.66-2.51-1.66-4.01s.6-2.95,1.66-4.01Z"/>
          <path class="cls-1" d="m33.74,107.55l9.2,9.2,11.22,11.21c9.95,9.95,23.02,14.92,36.09,14.92,9.95,0,19.91-2.88,28.49-8.66,1.15-.77,2.27-1.6,3.37-2.47,1.46-1.17,2.88-2.43,4.24-3.78,1.06-1.06,1.66-2.51,1.66-4.01s-.6-2.95-1.66-4.01l-43.3-43.29-5.19-5.19-3.78,3.79-4.23,4.23,5.19,5.19,39,39c-1.13.85-2.3,1.63-3.51,2.34-15.23,9.04-35.25,7.02-48.34-6.07l-11.22-11.21-5.19-5.19-4.01,4.01c-1.11,1.1-2.56,1.66-4.01,1.66s-2.9-.56-4.01-1.66Z"/>
          <path class="cls-1" d="m32.36,42.17l5.19,5.19,39,39,8.08,8.08c1.46-1.17,2.88-2.43,4.24-3.78,1.06-1.06,1.66-2.51,1.66-4.01s-.6-2.95-1.66-4.01l-43.3-43.29-5.19-5.19-3.78,3.79-4.23,4.23Z"/>
        </g>
        <path class="cls-1" d="m0,71.46c0,1.51.6,2.95,1.66,4.01l4.01,4.01L62.18,22.97c7.5-7.5,17.47-11.63,28.07-11.63,8.69,0,16.95,2.77,23.78,7.9l8.02,8.02,4.29-4.29c1.06-1.07,1.66-2.51,1.66-4.01s-.6-2.95-1.66-4.01C116.71,5.31,103.89,0,90.25,0s-26.45,5.31-36.09,14.95L1.66,67.45C.6,68.51,0,69.95,0,71.46Z"/>
        <g class="cls-2">
          <g>
            <polygon class="cls-1" points="74.07 75.25 69.83 79.48 75.03 84.67 83.04 76.66 77.85 71.46 74.07 75.25"/>
            <path class="cls-1" d="m33.74,107.55l9.2,9.2,8.02-8.02-5.19-5.19-4.01,4.01c-1.11,1.1-2.56,1.66-4.01,1.66s-2.9-.56-4.01-1.66Z"/>
          </g>
          <path class="cls-1" d="m110.52,126.02l8.21,8.21c1.15-.77,2.27-1.6,3.37-2.47l-8.08-8.08c-1.13.85-2.3,1.63-3.51,2.34Z"/>
        </g>
      </g>
    </g>
  </g>
</svg>